<svg xmlns="http://www.w3.org/2000/svg" width="1894" height="927" viewBox="0 0 1894 927">
<path d="M 0 926 L 1893 926 Z" fill="black"/>
<path d="M 316 621 L 315 622 L 313 622 L 312 623 L 311 623 L 310 624 L 309 624 L 307 626 L 306 626 L 301 631 L 301 632 L 299 634 L 299 635 L 298 636 L 298 637 L 297 638 L 297 640 L 296 641 L 296 655 L 297 656 L 297 658 L 298 659 L 298 660 L 299 661 L 299 662 L 301 664 L 301 665 L 306 670 L 307 670 L 309 672 L 310 672 L 311 673 L 312 673 L 313 674 L 315 674 L 316 675 L 542 675 L 543 674 L 545 674 L 546 673 L 547 673 L 548 672 L 549 672 L 551 670 L 552 670 L 557 665 L 557 664 L 559 662 L 559 661 L 560 660 L 560 659 L 561 658 L 561 656 L 562 655 L 562 641 L 561 640 L 561 638 L 560 637 L 560 636 L 559 635 L 559 634 L 557 632 L 557 631 L 552 626 L 551 626 L 549 624 L 548 624 L 547 623 L 546 623 L 545 622 L 543 622 L 542 621 Z" fill="black"/>
<path d="M 524 575 L 522 577 L 522 581 L 524 583 L 525 583 L 526 584 L 527 584 L 528 583 L 529 583 L 530 582 L 529 581 L 531 579 L 532 580 L 532 583 L 534 583 L 534 577 L 535 576 L 538 576 L 539 577 L 539 581 L 541 583 L 542 583 L 543 584 L 544 584 L 545 583 L 547 583 L 547 582 L 546 581 L 548 579 L 548 577 L 546 575 L 541 575 L 539 577 L 538 576 L 538 575 L 532 575 L 532 577 L 531 578 L 530 577 L 530 576 L 529 575 Z" fill="black"/>
<path d="M 487 575 L 487 583 L 489 583 L 489 577 L 490 576 L 492 576 L 493 577 L 493 583 L 495 583 L 495 576 L 494 575 Z" fill="black"/>
<path d="M 460 575 L 460 583 L 461 583 L 461 578 L 463 576 L 466 576 L 467 577 L 466 578 L 466 580 L 467 581 L 467 582 L 468 583 L 469 583 L 470 584 L 471 584 L 472 583 L 474 583 L 475 582 L 475 580 L 476 579 L 477 580 L 477 581 L 478 582 L 478 583 L 480 583 L 481 584 L 482 583 L 483 583 L 485 581 L 485 575 L 483 575 L 483 581 L 482 582 L 480 582 L 479 581 L 479 575 L 477 575 L 477 578 L 476 579 L 475 578 L 475 576 L 474 576 L 473 575 L 468 575 L 467 576 L 466 575 Z" fill="black"/>
<path d="M 450 575 L 448 577 L 448 581 L 450 583 L 454 583 L 455 584 L 453 586 L 451 586 L 450 585 L 449 585 L 448 586 L 449 586 L 450 587 L 455 587 L 457 585 L 457 575 Z" fill="black"/>
<path d="M 432 575 L 430 577 L 430 581 L 432 583 L 433 583 L 434 584 L 435 584 L 436 583 L 437 583 L 438 582 L 437 581 L 436 582 L 434 582 L 432 580 L 432 578 L 434 576 L 436 576 L 437 577 L 438 576 L 437 575 Z" fill="black"/>
<path d="M 397 575 L 397 583 L 399 583 L 399 577 L 400 576 L 403 576 L 403 575 Z" fill="black"/>
<path d="M 367 575 L 367 576 L 368 577 L 368 578 L 369 579 L 369 581 L 370 582 L 370 584 L 369 585 L 369 586 L 368 587 L 370 587 L 371 586 L 371 584 L 372 583 L 372 582 L 373 581 L 373 580 L 374 579 L 374 578 L 375 577 L 376 578 L 376 580 L 377 581 L 377 582 L 378 583 L 379 583 L 380 584 L 381 584 L 382 583 L 384 583 L 385 582 L 385 580 L 386 579 L 387 580 L 387 581 L 388 582 L 388 583 L 390 583 L 391 584 L 392 583 L 393 583 L 395 581 L 395 575 L 393 575 L 393 581 L 392 582 L 390 582 L 389 581 L 389 575 L 387 575 L 387 578 L 386 579 L 385 578 L 385 576 L 384 576 L 383 575 L 378 575 L 377 576 L 376 575 L 374 575 L 373 576 L 373 577 L 372 578 L 372 579 L 371 580 L 370 579 L 370 577 L 369 576 L 369 575 Z" fill="black"/>
<path d="M 336 575 L 334 577 L 334 582 L 335 583 L 337 583 L 338 584 L 339 583 L 341 583 L 343 581 L 343 578 L 344 577 L 345 578 L 345 579 L 346 580 L 346 581 L 347 582 L 347 583 L 349 583 L 349 582 L 350 581 L 350 580 L 351 579 L 351 577 L 352 576 L 353 577 L 353 581 L 355 583 L 356 583 L 357 584 L 358 584 L 359 583 L 361 583 L 361 582 L 360 581 L 362 579 L 362 577 L 360 575 L 355 575 L 353 577 L 352 576 L 352 575 L 350 575 L 350 577 L 349 578 L 349 579 L 348 580 L 347 579 L 347 578 L 346 577 L 346 576 L 345 575 L 343 575 L 342 576 L 341 575 Z" fill="black"/>
<path d="M 318 575 L 318 583 L 320 583 L 320 577 L 321 576 L 323 576 L 324 577 L 324 583 L 326 583 L 326 577 L 327 576 L 329 576 L 330 577 L 330 583 L 332 583 L 332 577 L 331 576 L 331 575 Z" fill="black"/>
<path d="M 297 571 L 297 583 L 299 583 L 299 579 L 300 578 L 302 580 L 302 581 L 304 583 L 307 583 L 308 582 L 309 583 L 311 583 L 312 584 L 313 584 L 314 583 L 315 583 L 316 582 L 315 581 L 316 580 L 316 576 L 315 575 L 310 575 L 309 576 L 308 576 L 308 582 L 307 583 L 303 579 L 303 578 L 304 577 L 305 577 L 306 576 L 306 573 L 304 571 Z" fill="black"/>
<path d="M 512 570 L 512 583 L 514 583 L 514 577 L 515 576 L 517 576 L 518 577 L 518 583 L 520 583 L 520 576 L 519 575 L 515 575 L 514 574 L 514 570 Z" fill="black"/>
<path d="M 504 570 L 504 574 L 503 575 L 499 575 L 497 577 L 497 581 L 498 582 L 498 583 L 500 583 L 501 584 L 502 583 L 506 583 L 506 570 Z" fill="black"/>
<path d="M 440 570 L 440 583 L 442 583 L 442 582 L 443 581 L 445 583 L 447 583 L 446 582 L 446 581 L 444 579 L 444 578 L 447 575 L 445 575 L 443 577 L 442 576 L 442 571 L 441 570 Z" fill="black"/>
<path d="M 409 570 L 409 583 L 412 583 L 413 584 L 414 584 L 415 583 L 416 583 L 419 580 L 420 581 L 420 582 L 421 583 L 422 583 L 423 584 L 424 584 L 425 583 L 428 583 L 428 575 L 421 575 L 420 576 L 420 577 L 419 578 L 418 578 L 417 577 L 417 576 L 416 575 L 412 575 L 411 574 L 411 571 L 410 570 Z" fill="black"/>
<path d="M 833 500 L 830 503 L 830 504 L 829 505 L 829 508 L 830 509 L 830 510 L 833 513 L 839 513 L 840 512 L 841 512 L 842 511 L 842 510 L 843 509 L 843 504 L 842 503 L 842 502 L 840 500 Z" fill="black"/>
<path d="M 300 476 L 299 477 L 299 512 L 311 512 L 311 476 Z" fill="black"/>
<path d="M 803 475 L 802 476 L 799 476 L 798 477 L 796 477 L 795 478 L 794 478 L 788 484 L 788 485 L 787 486 L 787 487 L 786 488 L 786 492 L 785 493 L 785 495 L 786 496 L 786 500 L 787 501 L 787 503 L 789 505 L 789 506 L 792 509 L 793 509 L 795 511 L 796 511 L 797 512 L 799 512 L 800 513 L 812 513 L 813 512 L 814 512 L 815 511 L 816 511 L 817 510 L 818 510 L 821 507 L 815 501 L 814 501 L 812 503 L 811 503 L 810 504 L 808 504 L 807 505 L 805 505 L 804 504 L 802 504 L 797 499 L 798 498 L 823 498 L 823 497 L 824 496 L 824 490 L 823 489 L 823 487 L 822 486 L 822 485 L 821 484 L 821 483 L 816 478 L 815 478 L 814 477 L 813 477 L 812 476 L 809 476 L 808 475 Z" fill="black"/>
<path d="M 762 475 L 761 476 L 757 476 L 756 477 L 755 477 L 754 478 L 753 478 L 747 484 L 747 485 L 746 486 L 746 487 L 745 488 L 745 491 L 744 492 L 744 497 L 745 498 L 745 501 L 746 502 L 746 503 L 747 504 L 747 505 L 752 510 L 753 510 L 754 511 L 755 511 L 756 512 L 758 512 L 759 513 L 770 513 L 771 512 L 773 512 L 774 511 L 775 511 L 776 510 L 777 510 L 780 507 L 774 501 L 773 501 L 771 503 L 770 503 L 769 504 L 767 504 L 766 505 L 764 505 L 763 504 L 761 504 L 760 503 L 759 503 L 757 501 L 757 500 L 756 499 L 757 498 L 782 498 L 782 496 L 783 495 L 783 492 L 782 491 L 782 487 L 781 486 L 781 485 L 780 484 L 780 483 L 775 478 L 774 478 L 773 477 L 772 477 L 771 476 L 768 476 L 767 475 Z" fill="black"/>
<path d="M 735 475 L 734 476 L 731 476 L 730 477 L 728 477 L 727 476 L 716 476 L 716 512 L 728 512 L 728 489 L 731 486 L 732 486 L 733 485 L 735 485 L 736 486 L 737 486 L 738 487 L 739 487 L 739 486 L 742 483 L 742 482 L 745 479 L 745 478 L 744 477 L 743 477 L 742 476 L 739 476 L 738 475 Z" fill="black"/>
<path d="M 656 475 L 655 476 L 652 476 L 651 477 L 649 477 L 648 476 L 637 476 L 637 512 L 649 512 L 649 489 L 652 486 L 653 486 L 654 485 L 656 485 L 657 486 L 658 486 L 659 487 L 660 487 L 660 486 L 663 483 L 663 482 L 666 479 L 666 478 L 665 477 L 664 477 L 663 476 L 660 476 L 659 475 Z" fill="black"/>
<path d="M 609 475 L 608 476 L 605 476 L 604 477 L 602 477 L 601 478 L 600 478 L 594 484 L 594 485 L 593 486 L 593 487 L 592 488 L 592 491 L 591 492 L 591 497 L 592 498 L 592 500 L 593 501 L 593 503 L 595 505 L 595 506 L 598 509 L 599 509 L 601 511 L 602 511 L 603 512 L 605 512 L 606 513 L 617 513 L 618 512 L 620 512 L 621 511 L 622 511 L 624 509 L 625 509 L 628 506 L 628 505 L 629 504 L 629 503 L 630 502 L 630 501 L 631 500 L 631 497 L 632 496 L 632 493 L 631 492 L 631 488 L 630 487 L 630 486 L 629 485 L 629 484 L 623 478 L 622 478 L 621 477 L 619 477 L 618 476 L 615 476 L 614 475 Z" fill="black"/>
<path d="M 524 475 L 523 476 L 521 476 L 520 477 L 519 477 L 518 478 L 517 478 L 515 480 L 515 481 L 514 482 L 514 483 L 513 484 L 513 489 L 514 490 L 514 492 L 518 496 L 519 496 L 520 497 L 522 497 L 523 498 L 526 498 L 527 499 L 529 499 L 531 501 L 531 502 L 529 504 L 523 504 L 522 503 L 521 503 L 520 502 L 519 502 L 517 500 L 511 506 L 511 507 L 514 510 L 515 510 L 516 511 L 517 511 L 518 512 L 520 512 L 521 513 L 533 513 L 534 512 L 536 512 L 538 510 L 539 510 L 541 508 L 541 507 L 542 506 L 542 498 L 541 497 L 541 496 L 537 492 L 536 492 L 535 491 L 533 491 L 532 490 L 529 490 L 528 489 L 527 489 L 525 487 L 525 486 L 527 484 L 530 484 L 531 485 L 533 485 L 536 488 L 537 487 L 538 487 L 543 482 L 543 481 L 540 478 L 539 478 L 538 477 L 537 477 L 536 476 L 533 476 L 532 475 Z" fill="black"/>
<path d="M 488 475 L 487 476 L 484 476 L 483 477 L 481 477 L 480 478 L 479 478 L 473 484 L 473 485 L 472 486 L 472 487 L 471 488 L 471 492 L 470 493 L 470 495 L 471 496 L 471 500 L 472 501 L 472 503 L 474 505 L 474 506 L 477 509 L 478 509 L 480 511 L 481 511 L 482 512 L 484 512 L 485 513 L 497 513 L 498 512 L 499 512 L 500 511 L 501 511 L 502 510 L 503 510 L 506 507 L 500 501 L 499 501 L 497 503 L 496 503 L 495 504 L 493 504 L 492 505 L 490 505 L 489 504 L 487 504 L 482 499 L 483 498 L 508 498 L 508 497 L 509 496 L 509 490 L 508 489 L 508 487 L 507 486 L 507 485 L 506 484 L 506 483 L 501 478 L 500 478 L 499 477 L 498 477 L 497 476 L 494 476 L 493 475 Z" fill="black"/>
<path d="M 443 475 L 442 476 L 438 476 L 437 477 L 436 477 L 434 479 L 433 479 L 430 482 L 430 483 L 429 484 L 429 485 L 428 486 L 428 487 L 427 488 L 427 498 L 428 499 L 428 501 L 429 502 L 429 503 L 435 509 L 436 509 L 437 510 L 438 510 L 439 511 L 449 511 L 450 510 L 451 510 L 452 509 L 453 510 L 453 514 L 449 518 L 448 518 L 447 519 L 442 519 L 441 518 L 439 518 L 437 516 L 436 516 L 435 515 L 435 514 L 434 514 L 427 521 L 432 526 L 433 526 L 434 527 L 436 527 L 437 528 L 440 528 L 441 529 L 448 529 L 449 528 L 452 528 L 453 527 L 455 527 L 456 526 L 457 526 L 463 520 L 463 519 L 464 518 L 464 516 L 465 515 L 465 476 L 454 476 L 454 477 L 453 478 L 452 477 L 451 477 L 450 476 L 447 476 L 446 475 Z" fill="black"/>
<path d="M 398 475 L 397 476 L 394 476 L 393 477 L 392 477 L 391 478 L 390 478 L 385 483 L 385 484 L 384 485 L 384 486 L 383 487 L 383 490 L 382 491 L 382 498 L 383 499 L 383 502 L 384 503 L 384 504 L 386 506 L 386 507 L 389 510 L 390 510 L 391 511 L 392 511 L 393 512 L 394 512 L 395 513 L 404 513 L 405 512 L 407 512 L 409 510 L 410 511 L 410 512 L 421 512 L 421 476 L 410 476 L 410 477 L 409 478 L 408 478 L 407 477 L 406 477 L 405 476 L 402 476 L 401 475 Z" fill="black"/>
<path d="M 339 475 L 338 476 L 335 476 L 334 477 L 333 477 L 332 478 L 330 476 L 319 476 L 319 512 L 331 512 L 331 489 L 332 488 L 332 487 L 333 486 L 334 486 L 335 485 L 338 485 L 339 486 L 340 486 L 341 487 L 341 488 L 342 489 L 342 512 L 354 512 L 354 489 L 357 486 L 358 486 L 359 485 L 361 485 L 362 486 L 363 486 L 365 488 L 365 512 L 377 512 L 377 485 L 376 484 L 376 483 L 375 482 L 375 481 L 372 478 L 371 478 L 370 477 L 369 477 L 368 476 L 365 476 L 364 475 L 361 475 L 360 476 L 357 476 L 356 477 L 355 477 L 354 478 L 353 478 L 351 480 L 348 477 L 347 477 L 346 476 L 343 476 L 342 475 Z" fill="black"/>
<path d="M 302 459 L 299 462 L 299 467 L 300 468 L 300 469 L 301 469 L 303 471 L 307 471 L 308 470 L 309 470 L 311 468 L 311 467 L 312 466 L 312 464 L 311 463 L 311 461 L 309 459 Z" fill="black"/>
<path d="M 703 457 L 702 458 L 699 458 L 698 459 L 697 459 L 696 460 L 695 460 L 692 463 L 692 464 L 690 466 L 690 468 L 689 469 L 689 475 L 688 476 L 681 476 L 681 485 L 682 486 L 688 486 L 689 487 L 689 512 L 701 512 L 701 487 L 702 486 L 711 486 L 711 476 L 702 476 L 701 475 L 701 470 L 703 468 L 704 468 L 705 467 L 706 467 L 707 468 L 708 468 L 709 469 L 710 469 L 717 462 L 715 460 L 714 460 L 713 459 L 712 459 L 711 458 L 709 458 L 708 457 Z" fill="black"/>
<path d="M 581 457 L 580 458 L 577 458 L 576 459 L 575 459 L 573 461 L 572 461 L 571 462 L 571 463 L 569 465 L 569 466 L 568 467 L 568 470 L 567 471 L 567 475 L 566 476 L 560 476 L 559 477 L 559 485 L 560 486 L 566 486 L 567 487 L 567 512 L 579 512 L 579 487 L 580 486 L 589 486 L 590 485 L 590 477 L 589 476 L 580 476 L 579 475 L 579 471 L 580 470 L 580 469 L 581 468 L 582 468 L 583 467 L 585 467 L 586 468 L 587 468 L 588 469 L 595 462 L 592 459 L 591 459 L 590 458 L 587 458 L 586 457 Z" fill="black"/>
<path d="M 583 383 L 582 384 L 582 406 L 583 407 L 583 410 L 584 411 L 584 412 L 586 414 L 586 415 L 588 417 L 589 417 L 590 418 L 591 418 L 592 419 L 594 419 L 595 420 L 604 420 L 605 419 L 607 419 L 608 418 L 609 418 L 610 417 L 611 417 L 614 414 L 614 413 L 615 412 L 615 411 L 616 410 L 616 407 L 617 406 L 617 383 L 605 383 L 605 407 L 602 410 L 597 410 L 595 408 L 595 407 L 594 406 L 594 383 Z" fill="black"/>
<path d="M 851 382 L 850 383 L 847 383 L 846 384 L 845 384 L 844 385 L 842 383 L 831 383 L 831 419 L 843 419 L 843 396 L 844 395 L 844 394 L 845 393 L 846 393 L 847 392 L 850 392 L 851 393 L 852 393 L 853 394 L 853 395 L 854 396 L 854 419 L 866 419 L 866 396 L 869 393 L 870 393 L 871 392 L 873 392 L 874 393 L 875 393 L 877 395 L 877 419 L 889 419 L 889 392 L 888 391 L 888 390 L 887 389 L 887 388 L 884 385 L 883 385 L 882 384 L 881 384 L 880 383 L 877 383 L 876 382 L 873 382 L 872 383 L 869 383 L 868 384 L 867 384 L 866 385 L 865 385 L 863 387 L 860 384 L 859 384 L 858 383 L 855 383 L 854 382 Z" fill="black"/>
<path d="M 803 382 L 802 383 L 799 383 L 798 384 L 796 384 L 795 385 L 794 385 L 788 391 L 788 392 L 787 393 L 787 394 L 786 395 L 786 398 L 785 399 L 785 404 L 786 405 L 786 407 L 787 408 L 787 410 L 789 412 L 789 413 L 792 416 L 793 416 L 795 418 L 796 418 L 797 419 L 799 419 L 800 420 L 811 420 L 812 419 L 814 419 L 815 418 L 816 418 L 818 416 L 819 416 L 822 413 L 822 412 L 823 411 L 823 410 L 824 409 L 824 408 L 825 407 L 825 404 L 826 403 L 826 400 L 825 399 L 825 395 L 824 394 L 824 393 L 823 392 L 823 391 L 817 385 L 816 385 L 815 384 L 813 384 L 812 383 L 809 383 L 808 382 Z" fill="black"/>
<path d="M 776 382 L 775 383 L 772 383 L 771 384 L 769 384 L 768 383 L 757 383 L 757 419 L 769 419 L 769 396 L 770 395 L 770 394 L 771 393 L 772 393 L 773 392 L 776 392 L 777 393 L 778 393 L 779 394 L 783 390 L 783 389 L 786 386 L 786 385 L 785 385 L 783 383 L 780 383 L 779 382 Z" fill="black"/>
<path d="M 644 382 L 643 383 L 640 383 L 639 384 L 638 384 L 637 385 L 636 385 L 635 384 L 635 383 L 624 383 L 624 419 L 635 419 L 635 398 L 636 397 L 636 396 L 637 395 L 637 394 L 638 393 L 639 393 L 640 392 L 643 392 L 644 393 L 645 393 L 647 395 L 647 396 L 648 397 L 648 419 L 660 419 L 660 396 L 659 395 L 659 391 L 658 390 L 658 389 L 653 384 L 652 384 L 651 383 L 648 383 L 647 382 Z" fill="black"/>
<path d="M 555 382 L 554 383 L 551 383 L 550 384 L 548 384 L 546 386 L 545 386 L 540 391 L 540 392 L 539 393 L 539 395 L 538 396 L 538 407 L 539 408 L 539 409 L 540 410 L 540 411 L 542 413 L 542 414 L 544 416 L 545 416 L 547 418 L 548 418 L 549 419 L 551 419 L 552 420 L 563 420 L 564 419 L 566 419 L 567 418 L 568 418 L 570 416 L 571 416 L 574 413 L 574 412 L 576 410 L 576 408 L 577 407 L 577 404 L 578 403 L 578 399 L 577 398 L 577 395 L 576 394 L 576 393 L 575 392 L 575 391 L 569 385 L 568 385 L 567 384 L 565 384 L 564 383 L 561 383 L 560 382 Z" fill="black"/>
<path d="M 529 382 L 528 383 L 524 383 L 522 385 L 520 383 L 509 383 L 509 419 L 521 419 L 521 396 L 525 392 L 528 392 L 529 393 L 530 393 L 531 394 L 535 390 L 535 389 L 538 386 L 538 385 L 537 385 L 535 383 L 532 383 L 531 382 Z" fill="black"/>
<path d="M 479 382 L 478 383 L 474 383 L 473 384 L 472 384 L 470 386 L 469 386 L 466 389 L 466 390 L 465 391 L 465 392 L 464 393 L 464 395 L 463 396 L 463 405 L 464 406 L 464 408 L 465 409 L 465 410 L 471 416 L 472 416 L 473 417 L 475 417 L 476 418 L 485 418 L 486 417 L 487 417 L 488 416 L 489 416 L 490 417 L 490 418 L 489 419 L 489 421 L 488 422 L 488 423 L 487 424 L 486 424 L 485 425 L 484 425 L 483 426 L 478 426 L 477 425 L 475 425 L 473 423 L 472 423 L 470 421 L 463 428 L 468 433 L 469 433 L 470 434 L 472 434 L 473 435 L 477 435 L 478 436 L 484 436 L 485 435 L 488 435 L 489 434 L 491 434 L 493 432 L 494 432 L 499 427 L 499 426 L 500 425 L 500 423 L 501 422 L 501 383 L 490 383 L 490 384 L 489 385 L 488 384 L 487 384 L 486 383 L 483 383 L 482 382 Z" fill="black"/>
<path d="M 404 382 L 403 383 L 400 383 L 399 384 L 397 384 L 395 386 L 394 386 L 389 391 L 389 392 L 388 393 L 388 394 L 387 395 L 387 399 L 386 400 L 386 403 L 387 404 L 387 408 L 388 409 L 388 410 L 390 412 L 390 413 L 393 416 L 394 416 L 396 418 L 397 418 L 398 419 L 400 419 L 401 420 L 412 420 L 413 419 L 415 419 L 417 417 L 418 417 L 421 414 L 414 407 L 413 407 L 411 409 L 410 409 L 409 410 L 404 410 L 403 409 L 402 409 L 400 407 L 400 406 L 399 405 L 399 404 L 398 403 L 398 400 L 399 399 L 399 397 L 403 393 L 411 393 L 413 395 L 414 395 L 421 388 L 419 386 L 418 386 L 416 384 L 414 384 L 413 383 L 410 383 L 409 382 Z" fill="black"/>
<path d="M 358 382 L 357 383 L 354 383 L 353 384 L 352 384 L 351 385 L 350 385 L 345 390 L 345 391 L 344 392 L 344 393 L 343 394 L 343 396 L 342 397 L 342 406 L 343 407 L 343 409 L 344 410 L 344 411 L 345 412 L 345 413 L 349 417 L 350 417 L 351 418 L 352 418 L 353 419 L 354 419 L 355 420 L 364 420 L 365 419 L 366 419 L 367 418 L 368 418 L 369 417 L 370 418 L 370 419 L 381 419 L 381 383 L 370 383 L 370 384 L 369 385 L 368 385 L 367 384 L 366 384 L 365 383 L 362 383 L 361 382 Z" fill="black"/>
<path d="M 692 365 L 692 384 L 691 385 L 690 384 L 689 384 L 688 383 L 684 383 L 683 382 L 681 382 L 680 383 L 676 383 L 675 384 L 674 384 L 673 385 L 672 385 L 667 390 L 667 391 L 666 392 L 666 393 L 665 394 L 665 397 L 664 398 L 664 405 L 665 406 L 665 408 L 666 409 L 666 411 L 669 414 L 669 415 L 670 416 L 671 416 L 673 418 L 674 418 L 675 419 L 677 419 L 678 420 L 686 420 L 687 419 L 689 419 L 691 417 L 692 418 L 692 419 L 703 419 L 703 365 Z" fill="black"/>
<path d="M 426 365 L 426 419 L 438 419 L 438 406 L 439 405 L 442 408 L 442 409 L 444 411 L 444 412 L 446 414 L 446 415 L 448 417 L 448 418 L 449 419 L 463 419 L 460 416 L 460 415 L 458 413 L 458 412 L 455 409 L 455 408 L 452 405 L 452 404 L 449 401 L 449 400 L 451 398 L 451 397 L 455 393 L 455 392 L 458 389 L 458 388 L 461 385 L 461 384 L 462 383 L 449 383 L 449 384 L 446 387 L 446 388 L 443 391 L 443 392 L 441 394 L 441 395 L 439 397 L 438 396 L 438 366 L 437 365 Z" fill="black"/>
<path d="M 300 365 L 299 366 L 299 419 L 311 419 L 312 418 L 313 418 L 314 419 L 316 419 L 317 420 L 325 420 L 326 419 L 328 419 L 329 418 L 330 418 L 336 412 L 336 411 L 337 410 L 337 408 L 338 407 L 338 395 L 337 394 L 337 393 L 336 392 L 336 391 L 335 390 L 335 389 L 332 386 L 331 386 L 329 384 L 328 384 L 327 383 L 323 383 L 322 382 L 319 382 L 318 383 L 315 383 L 314 384 L 313 384 L 312 385 L 311 384 L 311 365 Z" fill="black"/>
<path d="M 744 364 L 743 365 L 740 365 L 739 366 L 738 366 L 737 367 L 736 367 L 733 370 L 733 371 L 731 373 L 731 375 L 730 376 L 730 382 L 729 383 L 722 383 L 722 392 L 723 393 L 729 393 L 730 394 L 730 419 L 742 419 L 742 394 L 743 393 L 752 393 L 752 383 L 743 383 L 742 382 L 742 377 L 744 375 L 745 375 L 746 374 L 747 374 L 748 375 L 749 375 L 750 376 L 751 376 L 758 369 L 756 367 L 755 367 L 754 366 L 753 366 L 752 365 L 750 365 L 749 364 Z" fill="black"/>
<path d="M 491 289 L 492 290 L 492 292 L 493 293 L 493 294 L 494 295 L 494 296 L 495 297 L 495 299 L 496 300 L 496 301 L 497 302 L 497 303 L 498 304 L 498 306 L 499 307 L 499 308 L 500 309 L 500 310 L 501 311 L 501 313 L 502 314 L 502 315 L 503 316 L 503 317 L 504 318 L 504 320 L 505 321 L 505 322 L 506 323 L 506 325 L 516 325 L 517 324 L 517 323 L 518 322 L 518 321 L 519 320 L 519 318 L 520 317 L 520 316 L 521 315 L 521 314 L 522 313 L 522 311 L 523 310 L 523 309 L 524 308 L 524 307 L 525 306 L 525 304 L 526 303 L 526 302 L 527 301 L 527 299 L 528 298 L 528 297 L 529 296 L 529 295 L 530 294 L 530 292 L 531 291 L 531 289 L 519 289 L 519 291 L 518 292 L 518 293 L 517 294 L 517 296 L 516 297 L 516 299 L 515 300 L 515 302 L 514 303 L 514 305 L 513 306 L 513 308 L 512 309 L 510 307 L 510 306 L 509 305 L 509 303 L 508 302 L 508 300 L 507 299 L 507 297 L 506 296 L 506 294 L 505 293 L 505 291 L 504 290 L 504 289 Z" fill="black"/>
<path d="M 678 288 L 677 289 L 673 289 L 672 290 L 671 290 L 670 291 L 669 291 L 663 297 L 663 298 L 662 299 L 662 300 L 661 301 L 661 304 L 660 305 L 660 310 L 661 311 L 661 314 L 662 315 L 662 316 L 663 317 L 663 318 L 668 323 L 669 323 L 670 324 L 671 324 L 672 325 L 674 325 L 675 326 L 686 326 L 687 325 L 689 325 L 690 324 L 691 324 L 692 323 L 693 323 L 696 320 L 690 314 L 689 314 L 687 316 L 686 316 L 685 317 L 683 317 L 682 318 L 680 318 L 679 317 L 677 317 L 676 316 L 675 316 L 673 314 L 673 313 L 672 312 L 673 311 L 698 311 L 698 309 L 699 308 L 699 305 L 698 304 L 698 300 L 697 299 L 697 298 L 696 297 L 696 296 L 691 291 L 690 291 L 689 290 L 688 290 L 687 289 L 684 289 L 683 288 Z" fill="black"/>
<path d="M 549 288 L 548 289 L 545 289 L 544 290 L 543 290 L 542 291 L 541 291 L 540 292 L 539 292 L 535 296 L 535 297 L 534 298 L 534 299 L 533 300 L 533 302 L 532 303 L 532 311 L 533 312 L 533 314 L 534 315 L 534 316 L 535 317 L 535 318 L 540 323 L 541 323 L 542 324 L 543 324 L 544 325 L 546 325 L 547 326 L 558 326 L 559 325 L 561 325 L 562 324 L 563 324 L 565 322 L 566 322 L 567 321 L 567 319 L 562 314 L 561 314 L 559 316 L 558 316 L 557 317 L 554 317 L 553 318 L 552 318 L 551 317 L 548 317 L 544 313 L 544 312 L 545 311 L 570 311 L 570 301 L 569 300 L 569 299 L 568 298 L 568 297 L 567 296 L 567 295 L 564 292 L 563 292 L 561 290 L 559 290 L 558 289 L 555 289 L 554 288 Z" fill="black"/>
<path d="M 468 288 L 467 289 L 464 289 L 463 290 L 461 290 L 459 292 L 458 292 L 453 297 L 453 298 L 452 299 L 452 300 L 451 301 L 451 305 L 450 306 L 450 308 L 451 309 L 451 313 L 452 314 L 452 315 L 453 316 L 453 317 L 454 318 L 454 319 L 457 322 L 458 322 L 460 324 L 461 324 L 462 325 L 464 325 L 465 326 L 476 326 L 477 325 L 479 325 L 480 324 L 481 324 L 483 322 L 484 322 L 487 319 L 487 318 L 489 316 L 489 315 L 490 314 L 490 311 L 491 310 L 491 305 L 490 304 L 490 301 L 489 300 L 489 299 L 488 298 L 488 297 L 482 291 L 481 291 L 480 290 L 478 290 L 477 289 L 474 289 L 473 288 Z" fill="black"/>
<path d="M 407 288 L 406 289 L 403 289 L 402 290 L 401 290 L 400 291 L 399 290 L 399 289 L 388 289 L 387 290 L 387 325 L 399 325 L 399 303 L 400 302 L 400 301 L 402 299 L 403 299 L 404 298 L 406 298 L 407 299 L 408 299 L 410 301 L 410 302 L 411 303 L 411 325 L 423 325 L 423 301 L 425 299 L 426 299 L 427 298 L 430 298 L 434 302 L 434 325 L 446 325 L 446 300 L 445 299 L 445 297 L 444 296 L 444 295 L 443 294 L 443 293 L 442 292 L 441 292 L 439 290 L 438 290 L 437 289 L 434 289 L 433 288 L 430 288 L 429 289 L 425 289 L 424 290 L 423 290 L 421 292 L 418 292 L 416 290 L 415 290 L 414 289 L 411 289 L 410 288 Z" fill="black"/>
<path d="M 361 288 L 360 289 L 357 289 L 356 290 L 355 290 L 354 291 L 353 291 L 352 292 L 351 292 L 347 296 L 347 297 L 346 298 L 346 299 L 345 300 L 345 302 L 344 303 L 344 311 L 345 312 L 345 314 L 346 315 L 346 316 L 347 317 L 347 318 L 352 323 L 353 323 L 354 324 L 355 324 L 356 325 L 358 325 L 359 326 L 370 326 L 371 325 L 373 325 L 374 324 L 375 324 L 377 322 L 378 322 L 379 321 L 379 319 L 374 314 L 373 314 L 371 316 L 370 316 L 369 317 L 366 317 L 365 318 L 364 318 L 363 317 L 360 317 L 356 313 L 356 312 L 357 311 L 382 311 L 382 301 L 381 300 L 381 299 L 380 298 L 380 297 L 379 296 L 379 295 L 376 292 L 375 292 L 373 290 L 371 290 L 370 289 L 367 289 L 366 288 Z" fill="black"/>
<path d="M 595 274 L 595 288 L 594 289 L 587 289 L 587 299 L 594 299 L 595 300 L 595 325 L 607 325 L 607 300 L 608 299 L 615 299 L 615 289 L 608 289 L 607 288 L 607 274 Z" fill="black"/>
<path d="M 300 273 L 300 325 L 313 325 L 313 306 L 314 305 L 317 308 L 317 309 L 319 311 L 319 312 L 322 315 L 322 316 L 324 318 L 324 319 L 327 322 L 327 323 L 329 325 L 343 325 L 342 324 L 342 323 L 339 320 L 339 319 L 336 316 L 336 315 L 333 312 L 333 311 L 329 307 L 329 306 L 327 304 L 328 303 L 329 303 L 330 302 L 331 302 L 332 301 L 333 301 L 335 299 L 336 299 L 337 298 L 337 297 L 339 295 L 339 293 L 340 292 L 340 284 L 339 283 L 339 282 L 338 281 L 338 280 L 333 275 L 332 275 L 331 274 L 329 274 L 328 273 Z" fill="black"/>
<path d="M 620 271 L 620 325 L 632 325 L 632 302 L 633 301 L 633 300 L 634 299 L 635 299 L 636 298 L 639 298 L 640 299 L 641 299 L 643 301 L 643 302 L 644 303 L 644 325 L 656 325 L 656 301 L 655 300 L 655 297 L 654 296 L 654 295 L 653 294 L 653 293 L 652 292 L 651 292 L 649 290 L 648 290 L 647 289 L 644 289 L 643 288 L 640 288 L 639 289 L 636 289 L 635 290 L 633 290 L 632 289 L 632 272 L 631 271 Z" fill="black"/>
<path d="M 1474 216 L 1473 217 L 1469 217 L 1468 218 L 1467 218 L 1466 219 L 1465 219 L 1464 220 L 1463 220 L 1456 227 L 1456 228 L 1455 229 L 1455 230 L 1454 231 L 1454 233 L 1453 234 L 1453 237 L 1452 238 L 1451 238 L 1450 237 L 1450 233 L 1445 233 L 1445 237 L 1444 238 L 1440 238 L 1439 237 L 1439 233 L 1434 233 L 1434 237 L 1433 238 L 1429 238 L 1428 237 L 1428 233 L 1423 233 L 1423 237 L 1422 238 L 1418 238 L 1417 237 L 1417 233 L 1411 233 L 1412 234 L 1412 236 L 1410 238 L 1406 238 L 1405 237 L 1405 233 L 1400 233 L 1400 237 L 1399 238 L 1395 238 L 1394 237 L 1394 233 L 1389 233 L 1389 237 L 1388 238 L 1384 238 L 1383 237 L 1383 233 L 1378 233 L 1378 237 L 1377 238 L 1373 238 L 1372 237 L 1372 233 L 1367 233 L 1367 237 L 1366 238 L 1362 238 L 1360 236 L 1360 234 L 1361 233 L 1356 233 L 1356 237 L 1355 238 L 1350 238 L 1349 237 L 1349 233 L 1344 233 L 1344 237 L 1343 238 L 1339 238 L 1338 237 L 1338 233 L 1142 233 L 1141 234 L 1139 234 L 1134 239 L 1134 240 L 1133 241 L 1133 243 L 1132 244 L 1132 295 L 1131 296 L 1083 296 L 1082 297 L 1077 297 L 1076 298 L 1075 298 L 1074 299 L 1073 299 L 1072 300 L 1071 300 L 1066 305 L 1066 306 L 1064 308 L 1064 310 L 1063 311 L 1063 314 L 1062 315 L 1062 321 L 1063 322 L 1063 325 L 1064 326 L 1064 327 L 1066 329 L 1066 330 L 1071 335 L 1072 335 L 1073 336 L 1074 336 L 1075 337 L 1077 337 L 1078 338 L 1131 338 L 1132 339 L 1132 343 L 1131 344 L 1077 344 L 1076 345 L 1073 345 L 1072 346 L 1071 346 L 1069 348 L 1068 348 L 1066 350 L 1066 351 L 1064 353 L 1064 355 L 1063 356 L 1063 359 L 1062 360 L 1062 365 L 1063 366 L 1063 369 L 1064 370 L 1064 371 L 1067 374 L 1067 375 L 1068 375 L 1071 378 L 1073 378 L 1074 379 L 1078 379 L 1079 380 L 1131 380 L 1132 381 L 1132 522 L 1131 523 L 1128 523 L 1127 524 L 1125 524 L 1124 525 L 1123 525 L 1121 527 L 1120 527 L 1118 529 L 1118 530 L 1116 532 L 1116 533 L 1115 534 L 1115 536 L 1114 537 L 1114 539 L 1113 540 L 1113 542 L 1114 543 L 1114 546 L 1115 547 L 1115 549 L 1116 550 L 1116 551 L 1118 553 L 1118 554 L 1119 554 L 1120 555 L 1120 556 L 1121 556 L 1122 557 L 1123 557 L 1124 558 L 1125 558 L 1126 559 L 1128 559 L 1129 560 L 1131 560 L 1132 561 L 1132 599 L 1131 600 L 1114 600 L 1113 601 L 1111 601 L 1110 602 L 1109 602 L 1108 603 L 1107 603 L 1106 604 L 1105 604 L 1099 610 L 1099 611 L 1097 613 L 1097 615 L 1096 616 L 1096 617 L 1095 618 L 1095 620 L 1094 621 L 1094 631 L 1095 632 L 1095 634 L 1096 635 L 1096 636 L 1097 637 L 1097 639 L 1099 641 L 1099 642 L 1104 647 L 1105 647 L 1107 649 L 1108 649 L 1109 650 L 1110 650 L 1111 651 L 1114 651 L 1115 652 L 1131 652 L 1132 653 L 1132 656 L 1131 657 L 1131 658 L 1130 659 L 1101 659 L 1100 660 L 1099 660 L 1095 664 L 1095 665 L 1094 666 L 1094 726 L 1095 727 L 1095 728 L 1097 730 L 1097 732 L 1099 734 L 1100 734 L 1101 735 L 1102 735 L 1103 736 L 1105 736 L 1106 737 L 1453 737 L 1454 736 L 1456 736 L 1457 735 L 1458 735 L 1459 734 L 1460 734 L 1462 732 L 1462 731 L 1464 729 L 1464 728 L 1465 727 L 1465 724 L 1466 723 L 1466 696 L 1467 695 L 1475 695 L 1476 694 L 1477 695 L 1508 695 L 1509 694 L 1511 694 L 1512 695 L 1541 695 L 1542 694 L 1541 694 L 1540 693 L 1540 692 L 1541 691 L 1545 691 L 1546 692 L 1546 694 L 1547 693 L 1549 693 L 1550 692 L 1546 692 L 1545 691 L 1545 687 L 1546 686 L 1550 686 L 1551 687 L 1551 690 L 1552 690 L 1554 688 L 1554 686 L 1552 686 L 1551 685 L 1551 681 L 1552 680 L 1556 680 L 1556 675 L 1552 675 L 1551 674 L 1551 670 L 1552 669 L 1556 669 L 1556 664 L 1552 664 L 1551 663 L 1551 659 L 1552 658 L 1556 658 L 1556 653 L 1552 653 L 1551 652 L 1551 648 L 1552 647 L 1555 647 L 1556 646 L 1556 642 L 1553 642 L 1551 640 L 1551 636 L 1552 635 L 1556 635 L 1556 631 L 1555 630 L 1552 630 L 1551 629 L 1551 625 L 1552 624 L 1556 624 L 1556 619 L 1552 619 L 1551 618 L 1551 614 L 1552 613 L 1556 613 L 1556 608 L 1552 608 L 1551 607 L 1551 603 L 1552 602 L 1556 602 L 1556 597 L 1553 597 L 1552 596 L 1553 595 L 1555 595 L 1556 594 L 1567 594 L 1568 593 L 1572 593 L 1573 592 L 1575 592 L 1576 591 L 1577 591 L 1578 590 L 1579 590 L 1580 589 L 1586 589 L 1587 588 L 1590 588 L 1591 587 L 1592 587 L 1593 586 L 1594 586 L 1595 585 L 1595 584 L 1596 583 L 1596 582 L 1597 581 L 1597 577 L 1598 576 L 1598 569 L 1597 568 L 1597 567 L 1592 562 L 1592 560 L 1591 559 L 1591 558 L 1590 557 L 1590 556 L 1588 554 L 1587 554 L 1585 552 L 1585 551 L 1584 550 L 1584 547 L 1583 546 L 1583 545 L 1581 543 L 1580 543 L 1579 542 L 1573 542 L 1571 540 L 1570 540 L 1569 539 L 1563 539 L 1562 540 L 1561 540 L 1560 541 L 1559 541 L 1557 543 L 1556 542 L 1556 541 L 1552 541 L 1551 540 L 1551 536 L 1552 535 L 1555 535 L 1556 534 L 1556 530 L 1552 530 L 1551 529 L 1551 524 L 1552 523 L 1556 523 L 1556 519 L 1555 518 L 1552 518 L 1551 517 L 1551 516 L 1552 515 L 1561 515 L 1562 514 L 1565 514 L 1566 513 L 1567 513 L 1568 512 L 1569 512 L 1570 511 L 1571 511 L 1578 504 L 1578 503 L 1579 502 L 1579 501 L 1580 500 L 1580 498 L 1581 497 L 1581 495 L 1582 494 L 1582 485 L 1581 484 L 1581 482 L 1580 481 L 1580 479 L 1579 478 L 1579 477 L 1578 476 L 1578 475 L 1575 472 L 1575 471 L 1574 471 L 1571 468 L 1570 468 L 1568 466 L 1567 466 L 1566 465 L 1564 465 L 1563 464 L 1557 464 L 1556 463 L 1556 462 L 1552 462 L 1551 461 L 1551 457 L 1552 456 L 1556 456 L 1556 451 L 1552 451 L 1551 450 L 1551 446 L 1552 445 L 1556 445 L 1556 440 L 1552 440 L 1551 439 L 1551 435 L 1552 434 L 1556 434 L 1556 429 L 1552 429 L 1551 428 L 1551 424 L 1552 423 L 1555 423 L 1556 422 L 1556 418 L 1552 418 L 1551 417 L 1551 412 L 1552 411 L 1556 411 L 1556 406 L 1552 406 L 1551 405 L 1551 401 L 1552 400 L 1556 400 L 1556 395 L 1552 395 L 1551 394 L 1551 390 L 1552 389 L 1556 389 L 1556 384 L 1552 384 L 1551 383 L 1551 379 L 1552 378 L 1556 378 L 1556 373 L 1552 373 L 1551 372 L 1551 368 L 1552 367 L 1555 367 L 1556 366 L 1556 362 L 1552 362 L 1551 361 L 1551 356 L 1552 355 L 1556 355 L 1556 351 L 1555 350 L 1552 350 L 1551 349 L 1551 345 L 1552 344 L 1556 344 L 1556 339 L 1552 339 L 1551 338 L 1551 334 L 1552 333 L 1556 333 L 1556 328 L 1552 328 L 1551 327 L 1551 323 L 1552 322 L 1556 322 L 1556 317 L 1552 317 L 1551 316 L 1551 312 L 1552 311 L 1555 311 L 1556 310 L 1556 306 L 1552 306 L 1551 305 L 1551 300 L 1552 299 L 1556 299 L 1556 294 L 1552 294 L 1551 293 L 1551 289 L 1552 288 L 1556 288 L 1556 283 L 1552 283 L 1551 282 L 1551 278 L 1552 277 L 1556 277 L 1556 272 L 1552 272 L 1551 271 L 1551 267 L 1552 266 L 1556 266 L 1556 261 L 1552 261 L 1551 260 L 1551 256 L 1552 255 L 1555 255 L 1556 254 L 1556 250 L 1552 250 L 1551 249 L 1551 244 L 1552 243 L 1555 243 L 1555 241 L 1554 240 L 1554 239 L 1553 238 L 1552 238 L 1551 237 L 1551 236 L 1549 234 L 1548 234 L 1547 233 L 1546 233 L 1546 237 L 1545 238 L 1541 238 L 1540 237 L 1540 233 L 1535 233 L 1535 237 L 1534 238 L 1530 238 L 1529 237 L 1529 233 L 1523 233 L 1524 234 L 1524 237 L 1523 238 L 1518 238 L 1517 237 L 1517 233 L 1512 233 L 1512 237 L 1511 238 L 1507 238 L 1506 237 L 1506 233 L 1501 233 L 1499 231 L 1499 230 L 1498 229 L 1498 228 L 1496 226 L 1496 225 L 1492 221 L 1491 221 L 1489 219 L 1487 219 L 1485 217 L 1480 217 L 1479 216 Z" fill="black"/>
<path d="M 325 47 L 324 48 L 323 48 L 323 51 L 324 52 L 326 52 L 327 51 L 327 48 L 326 48 Z" fill="black"/>
<path d="M 399 38 L 400 39 L 400 40 L 401 41 L 401 43 L 402 44 L 402 45 L 403 46 L 403 47 L 404 48 L 404 50 L 405 51 L 405 52 L 408 52 L 408 51 L 409 50 L 409 49 L 410 48 L 410 47 L 411 46 L 411 44 L 412 43 L 412 42 L 413 41 L 413 40 L 414 39 L 414 38 L 410 38 L 410 39 L 409 40 L 409 41 L 408 42 L 408 44 L 407 45 L 405 43 L 405 41 L 404 40 L 404 39 L 403 38 Z" fill="black"/>
<path d="M 421 37 L 420 38 L 418 38 L 416 40 L 416 41 L 415 42 L 415 48 L 418 51 L 419 51 L 420 52 L 424 52 L 425 51 L 426 52 L 429 52 L 430 51 L 430 38 L 423 38 L 422 37 Z" fill="black"/>
<path d="M 390 37 L 389 38 L 387 38 L 384 41 L 384 43 L 383 44 L 383 45 L 384 46 L 384 48 L 385 49 L 385 50 L 386 50 L 387 51 L 388 51 L 389 52 L 393 52 L 394 51 L 395 51 L 396 50 L 397 50 L 397 49 L 398 48 L 398 41 L 395 38 L 393 38 L 392 37 Z" fill="black"/>
<path d="M 366 37 L 365 38 L 359 38 L 359 52 L 362 52 L 363 51 L 363 42 L 364 41 L 366 41 L 368 43 L 368 52 L 372 52 L 372 42 L 373 41 L 376 41 L 377 42 L 377 52 L 381 52 L 381 40 L 379 38 L 377 38 L 376 37 L 375 37 L 374 38 L 372 38 L 371 39 L 370 38 L 368 38 L 367 37 Z" fill="black"/>
<path d="M 337 37 L 336 38 L 331 38 L 331 52 L 335 52 L 335 42 L 336 41 L 340 41 L 342 39 L 343 40 L 343 41 L 342 42 L 342 47 L 343 48 L 343 49 L 345 51 L 346 51 L 347 52 L 352 52 L 353 51 L 354 51 L 355 50 L 355 49 L 353 47 L 354 46 L 356 46 L 356 41 L 353 38 L 351 38 L 350 37 L 348 37 L 347 38 L 346 38 L 345 39 L 344 39 L 343 40 L 340 37 Z" fill="black"/>
<path d="M 257 34 L 255 36 L 255 37 L 253 39 L 253 40 L 251 42 L 251 43 L 249 45 L 249 46 L 245 50 L 239 50 L 238 51 L 238 52 L 236 54 L 236 55 L 234 57 L 234 58 L 232 60 L 258 60 L 261 57 L 261 56 L 263 54 L 263 53 L 265 51 L 265 50 L 267 48 L 267 47 L 269 45 L 269 44 L 271 42 L 271 41 L 273 39 L 273 38 L 275 36 L 275 35 L 276 34 Z" fill="black"/>
<path d="M 433 31 L 433 52 L 437 52 L 437 31 Z" fill="black"/>
<path d="M 288 31 L 288 52 L 298 52 L 299 51 L 300 51 L 302 49 L 302 46 L 303 45 L 305 47 L 305 48 L 306 49 L 306 50 L 307 50 L 308 51 L 314 51 L 315 52 L 313 54 L 312 54 L 311 55 L 310 55 L 308 53 L 306 53 L 305 54 L 305 56 L 306 57 L 308 57 L 309 58 L 314 58 L 315 57 L 316 57 L 318 55 L 318 54 L 319 53 L 319 38 L 313 38 L 312 37 L 310 37 L 309 38 L 308 38 L 307 39 L 306 39 L 306 40 L 305 41 L 305 42 L 303 44 L 302 43 L 302 41 L 299 38 L 298 38 L 297 37 L 295 37 L 294 38 L 293 38 L 292 37 L 292 31 Z" fill="black"/>
<path d="M 238 21 L 235 24 L 235 25 L 233 27 L 233 28 L 231 30 L 231 31 L 229 33 L 229 34 L 227 36 L 227 37 L 225 39 L 225 40 L 223 42 L 223 43 L 221 45 L 221 46 L 220 47 L 220 48 L 244 48 L 246 46 L 246 45 L 248 43 L 248 42 L 250 40 L 250 39 L 252 37 L 252 36 L 254 34 L 254 33 L 257 30 L 257 29 L 259 27 L 259 26 L 261 24 L 261 23 L 263 21 Z" fill="black"/>
<path d="M 1489 14 L 1488 15 L 1486 15 L 1485 16 L 1484 16 L 1483 17 L 1482 17 L 1480 19 L 1479 19 L 1474 24 L 1474 25 L 1472 27 L 1472 28 L 1471 29 L 1471 30 L 1470 31 L 1470 33 L 1469 34 L 1469 48 L 1470 49 L 1470 51 L 1471 52 L 1471 53 L 1472 54 L 1472 55 L 1474 57 L 1474 58 L 1479 63 L 1480 63 L 1482 65 L 1483 65 L 1484 66 L 1485 66 L 1486 67 L 1488 67 L 1489 68 L 1660 68 L 1661 67 L 1663 67 L 1664 66 L 1665 66 L 1666 65 L 1667 65 L 1669 63 L 1670 63 L 1675 58 L 1675 57 L 1677 55 L 1677 54 L 1678 53 L 1678 52 L 1679 51 L 1679 49 L 1680 48 L 1680 34 L 1679 33 L 1679 31 L 1678 30 L 1678 29 L 1677 28 L 1677 27 L 1675 25 L 1675 24 L 1670 19 L 1669 19 L 1667 17 L 1666 17 L 1665 16 L 1664 16 L 1663 15 L 1661 15 L 1660 14 Z" fill="black"/>
</svg>